<mxfile host="65bd71144e">
    <diagram id="jN7ZKdExXru6YnrL6GAh" name="ページ1">
        <mxGraphModel dx="1003" dy="573" grid="1" gridSize="10" guides="1" tooltips="1" connect="1" arrows="1" fold="1" page="1" pageScale="1" pageWidth="827" pageHeight="1169" math="0" shadow="0">
            <root>
                <mxCell id="0"/>
                <mxCell id="1" parent="0"/>
                <mxCell id="5" value="" style="edgeStyle=none;html=1;rounded=1;curved=0;startArrow=none;startFill=0;endArrow=none;endFill=0;" edge="1" parent="1" source="3" target="4">
                    <mxGeometry relative="1" as="geometry"/>
                </mxCell>
                <mxCell id="13" value="" style="edgeStyle=none;html=1;endArrow=none;endFill=0;" edge="1" parent="1" source="3" target="10">
                    <mxGeometry relative="1" as="geometry"/>
                </mxCell>
                <mxCell id="3" value="R" style="pointerEvents=1;verticalLabelPosition=middle;shadow=0;dashed=0;align=left;html=1;verticalAlign=middle;shape=mxgraph.electrical.resistors.resistor_1;direction=south;fontSize=15;labelPosition=right;" vertex="1" parent="1">
                    <mxGeometry x="450" y="150" width="20" height="100" as="geometry"/>
                </mxCell>
                <mxCell id="14" value="" style="edgeStyle=none;html=1;endArrow=none;endFill=0;" edge="1" parent="1" source="4" target="6">
                    <mxGeometry relative="1" as="geometry"/>
                </mxCell>
                <mxCell id="4" value="10kΩ" style="pointerEvents=1;verticalLabelPosition=middle;shadow=0;dashed=0;align=left;html=1;verticalAlign=middle;shape=mxgraph.electrical.resistors.resistor_1;direction=south;fontSize=15;labelPosition=right;" vertex="1" parent="1">
                    <mxGeometry x="450" y="310" width="20" height="100" as="geometry"/>
                </mxCell>
                <mxCell id="6" value="GND" style="pointerEvents=1;verticalLabelPosition=middle;shadow=0;dashed=0;align=left;html=1;verticalAlign=middle;shape=mxgraph.electrical.signal_sources.protective_earth;fontSize=15;labelPosition=right;" vertex="1" parent="1">
                    <mxGeometry x="447.5" y="450" width="25" height="20" as="geometry"/>
                </mxCell>
                <mxCell id="10" value="V&lt;sub&gt;in&lt;/sub&gt;" style="ellipse;whiteSpace=wrap;html=1;aspect=fixed;labelPosition=right;verticalLabelPosition=middle;align=left;verticalAlign=middle;fontSize=15;" vertex="1" parent="1">
                    <mxGeometry x="450" y="90" width="20" height="20" as="geometry"/>
                </mxCell>
                <mxCell id="16" value="" style="edgeStyle=none;html=1;endArrow=none;endFill=0;" edge="1" parent="1" source="15">
                    <mxGeometry relative="1" as="geometry">
                        <mxPoint x="460" y="280" as="targetPoint"/>
                    </mxGeometry>
                </mxCell>
                <mxCell id="15" value="V&lt;span style=&quot;font-size: 12.5px;&quot;&gt;out&lt;/span&gt;" style="ellipse;whiteSpace=wrap;html=1;aspect=fixed;labelPosition=right;verticalLabelPosition=middle;align=left;verticalAlign=middle;fontSize=15;" vertex="1" parent="1">
                    <mxGeometry x="550" y="270" width="20" height="20" as="geometry"/>
                </mxCell>
                <mxCell id="17" value="5V" style="text;html=1;align=center;verticalAlign=middle;whiteSpace=wrap;rounded=0;fontSize=15;" vertex="1" parent="1">
                    <mxGeometry x="430" y="60" width="60" height="30" as="geometry"/>
                </mxCell>
            </root>
        </mxGraphModel>
    </diagram>
</mxfile>
